<svg xmlns="http://www.w3.org/2000/svg" xmlns:xlink="http://www.w3.org/1999/xlink" width="240" zoomAndPan="magnify" viewBox="0 0 180 48.75" height="65" preserveAspectRatio="xMidYMid meet" version="1.0"><defs><g/><clipPath id="aae9c55ea7"><path d="M 76 11 L 79 11 L 79 15 L 76 15 Z M 76 11 " clip-rule="nonzero"/></clipPath><clipPath id="83659f39fe"><path d="M 65.796875 3.480469 L 89.441406 6.789062 L 84.378906 42.996094 L 60.730469 39.691406 Z M 65.796875 3.480469 " clip-rule="nonzero"/></clipPath><clipPath id="6d2a851035"><path d="M 65.796875 3.480469 L 89.441406 6.789062 L 84.378906 42.996094 L 60.730469 39.691406 Z M 65.796875 3.480469 " clip-rule="nonzero"/></clipPath><clipPath id="414d736f21"><path d="M 64 4 L 89 4 L 89 24 L 64 24 Z M 64 4 " clip-rule="nonzero"/></clipPath><clipPath id="30c3a65334"><path d="M 65.796875 3.480469 L 89.441406 6.789062 L 84.378906 42.996094 L 60.730469 39.691406 Z M 65.796875 3.480469 " clip-rule="nonzero"/></clipPath><clipPath id="6d0cc16fe9"><path d="M 65.796875 3.480469 L 89.441406 6.789062 L 84.378906 42.996094 L 60.730469 39.691406 Z M 65.796875 3.480469 " clip-rule="nonzero"/></clipPath><clipPath id="2c35854dcf"><path d="M 65.824219 3.484375 L 89.441406 6.789062 L 86.949219 24.625 L 63.332031 21.324219 Z M 65.824219 3.484375 " clip-rule="nonzero"/></clipPath><clipPath id="cd9386e00f"><path d="M 65.824219 3.484375 L 89.410156 6.785156 L 86.917969 24.621094 L 63.332031 21.324219 Z M 65.824219 3.484375 " clip-rule="nonzero"/></clipPath><clipPath id="a3563bc135"><path d="M 67 13 L 78 13 L 78 42 L 67 42 Z M 67 13 " clip-rule="nonzero"/></clipPath><clipPath id="ed6423a64a"><path d="M 65.796875 3.480469 L 89.441406 6.789062 L 84.378906 42.996094 L 60.730469 39.691406 Z M 65.796875 3.480469 " clip-rule="nonzero"/></clipPath><clipPath id="204b7dbad1"><path d="M 65.796875 3.480469 L 89.441406 6.789062 L 84.378906 42.996094 L 60.730469 39.691406 Z M 65.796875 3.480469 " clip-rule="nonzero"/></clipPath><clipPath id="bf861258f0"><path d="M 70.804688 12.050781 L 77.992188 13.058594 L 73.996094 41.640625 L 66.808594 40.636719 Z M 70.804688 12.050781 " clip-rule="nonzero"/></clipPath><clipPath id="acce3d31e2"><path d="M 70.804688 12.050781 L 77.992188 13.058594 L 74.007812 41.546875 L 66.820312 40.539062 Z M 70.804688 12.050781 " clip-rule="nonzero"/></clipPath><clipPath id="a3fc663ece"><path d="M 110.3125 6.035156 L 128 6.035156 L 128 25 L 110.3125 25 Z M 110.3125 6.035156 " clip-rule="nonzero"/></clipPath><clipPath id="7dc1e6e363"><path d="M 129 12 L 139.414062 12 L 139.414062 24 L 129 24 Z M 129 12 " clip-rule="nonzero"/></clipPath><clipPath id="aeb140a5b8"><path d="M 114 18 L 136 18 L 136 40.359375 L 114 40.359375 Z M 114 18 " clip-rule="nonzero"/></clipPath></defs><g fill="#fed136" fill-opacity="1"><g transform="translate(3.141082, 36.790555)"><g><path d="M 15.921875 -1.875 C 15.921875 -2.78125 16.070312 -3.945312 16.375 -5.375 C 16.675781 -6.800781 17.078125 -8.328125 17.578125 -9.953125 C 16.148438 -9.847656 14.71875 -9.707031 13.28125 -9.53125 C 11.84375 -9.351562 10.59375 -9.253906 9.53125 -9.234375 C 8.5625 -6.960938 7.789062 -4.867188 7.21875 -2.953125 C 6.644531 -1.046875 6.195312 0.8125 5.875 2.625 C 5.050781 2.425781 4.367188 2.082031 3.828125 1.59375 C 3.285156 1.113281 2.785156 0.503906 2.328125 -0.234375 C 2.503906 -0.578125 2.707031 -1.015625 2.9375 -1.546875 C 3.164062 -2.085938 3.4375 -2.742188 3.75 -3.515625 C 4.0625 -4.285156 4.414062 -5.179688 4.8125 -6.203125 C 5.21875 -7.234375 5.675781 -8.429688 6.1875 -9.796875 C 5.476562 -10.097656 5.003906 -10.519531 4.765625 -11.0625 C 4.867188 -11.144531 5.109375 -11.234375 5.484375 -11.328125 C 5.867188 -11.429688 6.34375 -11.535156 6.90625 -11.640625 L 7.328125 -12.671875 C 7.785156 -13.835938 8.160156 -14.820312 8.453125 -15.625 C 8.742188 -16.425781 8.988281 -17.207031 9.1875 -17.96875 C 9.394531 -18.738281 9.585938 -19.585938 9.765625 -20.515625 C 9.953125 -21.453125 10.175781 -22.632812 10.4375 -24.0625 C 11.34375 -23.882812 12.164062 -23.484375 12.90625 -22.859375 C 13.65625 -22.234375 14.300781 -21.476562 14.84375 -20.59375 C 14.65625 -20.332031 14.421875 -19.941406 14.140625 -19.421875 C 13.859375 -18.898438 13.546875 -18.273438 13.203125 -17.546875 C 12.867188 -16.828125 12.507812 -16.019531 12.125 -15.125 C 11.738281 -14.226562 11.316406 -13.28125 10.859375 -12.28125 C 12.203125 -12.457031 13.554688 -12.617188 14.921875 -12.765625 C 16.296875 -12.921875 17.515625 -13.03125 18.578125 -13.09375 C 18.960938 -14.21875 19.363281 -15.316406 19.78125 -16.390625 C 20.207031 -17.460938 20.625 -18.441406 21.03125 -19.328125 C 21.445312 -20.210938 21.84375 -20.988281 22.21875 -21.65625 C 22.601562 -22.320312 22.945312 -22.820312 23.25 -23.15625 C 23.46875 -23.125 23.753906 -23.035156 24.109375 -22.890625 C 24.460938 -22.753906 24.820312 -22.585938 25.1875 -22.390625 C 25.5625 -22.203125 25.898438 -21.992188 26.203125 -21.765625 C 26.503906 -21.546875 26.707031 -21.335938 26.8125 -21.140625 C 26.425781 -20.773438 26.035156 -20.300781 25.640625 -19.71875 C 25.253906 -19.132812 24.867188 -18.460938 24.484375 -17.703125 C 24.109375 -16.941406 23.738281 -16.117188 23.375 -15.234375 C 23.007812 -14.347656 22.664062 -13.429688 22.34375 -12.484375 C 22.769531 -12.097656 22.984375 -11.609375 22.984375 -11.015625 C 22.984375 -10.609375 22.898438 -10.234375 22.734375 -9.890625 C 22.535156 -9.929688 22.335938 -9.957031 22.140625 -9.96875 C 21.953125 -9.976562 21.75 -9.992188 21.53125 -10.015625 C 21.164062 -8.847656 20.828125 -7.691406 20.515625 -6.546875 C 20.210938 -5.398438 19.957031 -4.304688 19.75 -3.265625 C 19.550781 -2.234375 19.390625 -1.285156 19.265625 -0.421875 C 19.148438 0.441406 19.09375 1.164062 19.09375 1.75 C 19.09375 1.96875 19.097656 2.140625 19.109375 2.265625 C 19.117188 2.398438 19.132812 2.507812 19.15625 2.59375 C 18.6875 2.570312 18.34375 2.488281 18.125 2.34375 C 17.90625 2.207031 17.738281 2.054688 17.625 1.890625 C 17.519531 1.734375 17.425781 1.570312 17.34375 1.40625 C 17.257812 1.25 17.117188 1.125 16.921875 1.03125 C 16.773438 0.96875 16.632812 0.816406 16.5 0.578125 C 16.375 0.347656 16.265625 0.0820312 16.171875 -0.21875 C 16.085938 -0.53125 16.023438 -0.835938 15.984375 -1.140625 C 15.941406 -1.441406 15.921875 -1.6875 15.921875 -1.875 Z M 15.921875 -1.875 "/></g></g></g><g fill="#fed136" fill-opacity="1"><g transform="translate(25.018487, 36.790555)"><g><path d="M 6.96875 1.140625 C 5.738281 1.003906 4.753906 0.460938 4.015625 -0.484375 C 3.285156 -1.429688 2.921875 -2.644531 2.921875 -4.125 C 2.921875 -4.988281 3.050781 -5.882812 3.3125 -6.8125 C 3.570312 -7.738281 3.9375 -8.640625 4.40625 -9.515625 C 4.882812 -10.390625 5.445312 -11.210938 6.09375 -11.984375 C 6.738281 -12.765625 7.441406 -13.4375 8.203125 -14 C 9.390625 -14.882812 10.503906 -15.328125 11.546875 -15.328125 C 12.234375 -14.960938 12.910156 -14.195312 13.578125 -13.03125 C 13.691406 -13.03125 13.789062 -13.035156 13.875 -13.046875 C 13.957031 -13.054688 14.054688 -13.0625 14.171875 -13.0625 C 15.316406 -13.0625 15.890625 -12.046875 15.890625 -10.015625 C 15.890625 -8.648438 15.664062 -7.359375 15.21875 -6.140625 C 14.78125 -4.921875 14.164062 -3.8125 13.375 -2.8125 C 12.582031 -1.820312 11.640625 -0.984375 10.546875 -0.296875 C 9.460938 0.378906 8.269531 0.859375 6.96875 1.140625 Z M 8.625 -9.078125 C 8.257812 -8.578125 7.910156 -8.035156 7.578125 -7.453125 C 7.253906 -6.867188 6.972656 -6.28125 6.734375 -5.6875 C 6.503906 -5.09375 6.320312 -4.519531 6.1875 -3.96875 C 6.0625 -3.414062 6 -2.925781 6 -2.5 C 6 -1.976562 6.082031 -1.476562 6.25 -1 C 6.425781 -0.53125 6.625 -0.257812 6.84375 -0.1875 C 7.8125 -0.40625 8.703125 -0.8125 9.515625 -1.40625 C 10.328125 -2 11.03125 -2.738281 11.625 -3.625 C 12.21875 -4.507812 12.679688 -5.515625 13.015625 -6.640625 C 13.347656 -7.765625 13.515625 -8.96875 13.515625 -10.25 C 13.515625 -10.8125 13.484375 -11.253906 13.421875 -11.578125 C 13.359375 -11.898438 13.25 -12.179688 13.09375 -12.421875 C 12.144531 -12.140625 11.296875 -11.679688 10.546875 -11.046875 C 9.804688 -10.421875 9.164062 -9.765625 8.625 -9.078125 Z M 8.625 -9.078125 "/></g></g></g><g fill="#fed136" fill-opacity="1"><g transform="translate(39.311717, 36.790555)"><g><path d="M 5.0625 -12.421875 C 4.945312 -12.546875 4.847656 -12.816406 4.765625 -13.234375 C 4.679688 -13.660156 4.640625 -14.023438 4.640625 -14.328125 C 5.203125 -14.285156 5.738281 -14.25 6.25 -14.21875 C 6.769531 -14.1875 7.25 -14.160156 7.6875 -14.140625 C 8.007812 -14.785156 8.359375 -15.425781 8.734375 -16.0625 C 9.117188 -16.695312 9.488281 -17.28125 9.84375 -17.8125 C 10.195312 -18.34375 10.53125 -18.789062 10.84375 -19.15625 C 11.15625 -19.53125 11.398438 -19.769531 11.578125 -19.875 C 11.796875 -19.875 12.070312 -19.832031 12.40625 -19.75 C 12.738281 -19.675781 13.078125 -19.582031 13.421875 -19.46875 C 13.765625 -19.351562 14.078125 -19.226562 14.359375 -19.09375 C 14.640625 -18.96875 14.835938 -18.835938 14.953125 -18.703125 C 14.296875 -17.878906 13.734375 -17.117188 13.265625 -16.421875 C 12.804688 -15.722656 12.304688 -14.914062 11.765625 -14 C 12.203125 -14 12.640625 -14.007812 13.078125 -14.03125 C 13.523438 -14.0625 13.972656 -14.097656 14.421875 -14.140625 C 14.535156 -14.023438 14.625 -13.882812 14.6875 -13.71875 C 14.75 -13.5625 14.78125 -13.398438 14.78125 -13.234375 C 13.726562 -12.835938 12.441406 -12.617188 10.921875 -12.578125 C 10.378906 -11.535156 9.894531 -10.5 9.46875 -9.46875 C 9.050781 -8.445312 8.695312 -7.460938 8.40625 -6.515625 C 8.113281 -5.566406 7.882812 -4.671875 7.71875 -3.828125 C 7.5625 -2.984375 7.484375 -2.226562 7.484375 -1.5625 C 7.484375 -0.601562 7.84375 -0.0703125 8.5625 0.03125 C 9.207031 -0.0507812 9.820312 -0.210938 10.40625 -0.453125 C 10.988281 -0.691406 11.507812 -0.992188 11.96875 -1.359375 C 12.09375 -1.160156 12.164062 -1 12.1875 -0.875 C 12.0625 -0.675781 11.84375 -0.445312 11.53125 -0.1875 C 11.21875 0.0625 10.875 0.3125 10.5 0.5625 C 10.132812 0.8125 9.78125 1.019531 9.4375 1.1875 C 9.09375 1.363281 8.832031 1.460938 8.65625 1.484375 C 8.113281 1.460938 7.570312 1.34375 7.03125 1.125 C 6.488281 0.914062 5.992188 0.648438 5.546875 0.328125 C 5.109375 0.00390625 4.75 -0.351562 4.46875 -0.75 C 4.1875 -1.15625 4.046875 -1.550781 4.046875 -1.9375 C 4.046875 -2.457031 4.113281 -3.113281 4.25 -3.90625 C 4.394531 -4.695312 4.597656 -5.554688 4.859375 -6.484375 C 5.117188 -7.410156 5.421875 -8.378906 5.765625 -9.390625 C 6.117188 -10.410156 6.5 -11.421875 6.90625 -12.421875 Z M 5.0625 -12.421875 "/></g></g></g><g fill="#fed136" fill-opacity="1"><g transform="translate(50.720384, 36.790555)"><g><path d="M 14.75 -13.421875 C 14.664062 -12.078125 14.425781 -10.925781 14.03125 -9.96875 C 13.644531 -9.007812 13.085938 -8.164062 12.359375 -7.4375 C 11.640625 -6.71875 10.757812 -6.066406 9.71875 -5.484375 C 8.6875 -4.898438 7.476562 -4.335938 6.09375 -3.796875 C 6.09375 -3.660156 6.085938 -3.519531 6.078125 -3.375 C 6.066406 -3.238281 6.0625 -3.097656 6.0625 -2.953125 C 6.0625 -2.671875 6.082031 -2.378906 6.125 -2.078125 C 6.164062 -1.773438 6.238281 -1.492188 6.34375 -1.234375 C 6.457031 -0.972656 6.609375 -0.757812 6.796875 -0.59375 C 6.992188 -0.4375 7.242188 -0.359375 7.546875 -0.359375 C 8.128906 -0.359375 8.703125 -0.488281 9.265625 -0.75 C 9.828125 -1.007812 10.363281 -1.328125 10.875 -1.703125 C 11.382812 -2.078125 11.859375 -2.484375 12.296875 -2.921875 C 12.742188 -3.367188 13.140625 -3.78125 13.484375 -4.15625 C 13.703125 -3.957031 13.882812 -3.769531 14.03125 -3.59375 C 13.0625 -2.300781 12 -1.226562 10.84375 -0.375 C 9.6875 0.476562 8.585938 1.023438 7.546875 1.265625 C 6.054688 1.085938 4.894531 0.539062 4.0625 -0.375 C 3.238281 -1.289062 2.828125 -2.398438 2.828125 -3.703125 C 2.828125 -4.585938 2.945312 -5.488281 3.1875 -6.40625 C 3.4375 -7.320312 3.78125 -8.207031 4.21875 -9.0625 C 4.664062 -9.914062 5.1875 -10.71875 5.78125 -11.46875 C 6.375 -12.226562 7.007812 -12.890625 7.6875 -13.453125 C 8.375 -14.015625 9.078125 -14.457031 9.796875 -14.78125 C 10.523438 -15.101562 11.25 -15.265625 11.96875 -15.265625 C 12.957031 -15.140625 13.882812 -14.523438 14.75 -13.421875 Z M 12.515625 -12.359375 C 11.929688 -12.265625 11.328125 -12.023438 10.703125 -11.640625 C 10.078125 -11.253906 9.488281 -10.734375 8.9375 -10.078125 C 8.382812 -9.429688 7.878906 -8.675781 7.421875 -7.8125 C 6.972656 -6.945312 6.617188 -6.019531 6.359375 -5.03125 C 8.085938 -5.894531 9.523438 -6.957031 10.671875 -8.21875 C 11.816406 -9.476562 12.429688 -10.859375 12.515625 -12.359375 Z M 12.515625 -12.359375 "/></g></g></g><g fill="#fed136" fill-opacity="1"><g transform="translate(63.822049, 36.790555)"><g/></g></g><g fill="#fed136" fill-opacity="1"><g transform="translate(71.535858, 36.790555)"><g/></g></g><g fill="#fed136" fill-opacity="1"><g transform="translate(79.249668, 36.790555)"><g/></g></g><g fill="#fed136" fill-opacity="1"><g transform="translate(86.965071, 36.790555)"><g><path d="M 24.40625 -21.859375 C 24.476562 -21.484375 24.53125 -21.222656 24.5625 -21.078125 C 24.59375 -20.941406 24.609375 -20.753906 24.609375 -20.515625 C 24.609375 -19.804688 24.453125 -19.144531 24.140625 -18.53125 C 23.828125 -17.914062 23.398438 -17.476562 22.859375 -17.21875 C 22.421875 -17.800781 21.890625 -18.300781 21.265625 -18.71875 C 20.640625 -19.144531 19.953125 -19.492188 19.203125 -19.765625 C 18.460938 -20.035156 17.691406 -20.234375 16.890625 -20.359375 C 16.085938 -20.492188 15.3125 -20.5625 14.5625 -20.5625 C 13.800781 -20.5625 13.085938 -20.5 12.421875 -20.375 C 11.765625 -20.257812 11.179688 -20.097656 10.671875 -19.890625 C 10.171875 -19.679688 9.773438 -19.425781 9.484375 -19.125 C 9.191406 -18.820312 9.046875 -18.476562 9.046875 -18.09375 C 9.109375 -17.613281 9.398438 -17.128906 9.921875 -16.640625 C 10.441406 -16.160156 11.078125 -15.6875 11.828125 -15.21875 C 12.585938 -14.757812 13.425781 -14.300781 14.34375 -13.84375 C 15.257812 -13.382812 16.160156 -12.953125 17.046875 -12.546875 C 18.148438 -12.023438 19.101562 -11.539062 19.90625 -11.09375 C 20.707031 -10.65625 21.363281 -10.171875 21.875 -9.640625 C 22.394531 -9.109375 22.785156 -8.507812 23.046875 -7.84375 C 23.304688 -7.175781 23.4375 -6.367188 23.4375 -5.421875 C 23.4375 -4.316406 23.253906 -3.28125 22.890625 -2.3125 C 22.523438 -1.351562 21.988281 -0.519531 21.28125 0.1875 C 20.582031 0.90625 19.734375 1.460938 18.734375 1.859375 C 17.742188 2.265625 16.632812 2.46875 15.40625 2.46875 C 14.1875 2.46875 12.875 2.28125 11.46875 1.90625 C 10.070312 1.539062 8.757812 1.039062 7.53125 0.40625 C 6.3125 -0.226562 5.296875 -0.960938 4.484375 -1.796875 C 3.679688 -2.628906 3.28125 -3.507812 3.28125 -4.4375 C 3.28125 -4.875 3.398438 -5.425781 3.640625 -6.09375 C 3.890625 -6.757812 4.34375 -7.460938 5 -8.203125 C 5.0625 -7.554688 5.410156 -6.789062 6.046875 -5.90625 C 6.679688 -5.019531 7.640625 -4.195312 8.921875 -3.4375 C 10.109375 -2.75 11.332031 -2.242188 12.59375 -1.921875 C 13.863281 -1.609375 15.046875 -1.453125 16.140625 -1.453125 C 17.359375 -1.453125 18.34375 -1.601562 19.09375 -1.90625 C 19.851562 -2.207031 20.445312 -2.566406 20.875 -2.984375 C 21.3125 -3.410156 21.613281 -3.835938 21.78125 -4.265625 C 21.957031 -4.703125 22.054688 -5.050781 22.078125 -5.3125 C 22.054688 -5.75 21.851562 -6.164062 21.46875 -6.5625 C 21.09375 -6.96875 20.585938 -7.359375 19.953125 -7.734375 C 19.316406 -8.109375 18.578125 -8.488281 17.734375 -8.875 C 16.890625 -9.269531 16.015625 -9.660156 15.109375 -10.046875 C 13.742188 -10.648438 12.566406 -11.21875 11.578125 -11.75 C 10.597656 -12.28125 9.789062 -12.820312 9.15625 -13.375 C 8.519531 -13.925781 8.054688 -14.503906 7.765625 -15.109375 C 7.472656 -15.710938 7.328125 -16.40625 7.328125 -17.1875 C 7.328125 -18.394531 7.691406 -19.535156 8.421875 -20.609375 C 9.160156 -21.691406 10.222656 -22.515625 11.609375 -23.078125 C 12.296875 -23.378906 13.035156 -23.59375 13.828125 -23.71875 C 14.617188 -23.851562 15.390625 -23.921875 16.140625 -23.921875 C 17.566406 -23.921875 18.960938 -23.726562 20.328125 -23.34375 C 21.691406 -22.957031 23.050781 -22.460938 24.40625 -21.859375 Z M 24.40625 -21.859375 "/></g></g></g><g fill="#fed136" fill-opacity="1"><g transform="translate(109.731637, 36.790555)"><g/></g></g><g fill="#fed136" fill-opacity="1"><g transform="translate(117.445447, 36.790555)"><g/></g></g><g fill="#fed136" fill-opacity="1"><g transform="translate(125.159256, 36.790555)"><g/></g></g><g fill="#fed136" fill-opacity="1"><g transform="translate(132.874659, 36.790555)"><g><path d="M 16.859375 -13.515625 C 17.546875 -13.515625 18.085938 -13.320312 18.484375 -12.9375 C 18.890625 -12.550781 19.09375 -12.007812 19.09375 -11.3125 C 19.09375 -11.144531 19.082031 -10.96875 19.0625 -10.78125 C 19.039062 -10.59375 19 -10.4375 18.9375 -10.3125 C 18.65625 -10.351562 18.335938 -10.390625 17.984375 -10.421875 C 17.640625 -10.453125 17.234375 -10.46875 16.765625 -10.46875 C 15.785156 -10.46875 14.8125 -10.378906 13.84375 -10.203125 C 12.875 -10.035156 11.945312 -9.898438 11.0625 -9.796875 C 10.082031 -7.503906 9.28125 -5.351562 8.65625 -3.34375 C 8.03125 -1.332031 7.546875 0.65625 7.203125 2.625 C 6.460938 2.445312 5.8125 2.128906 5.25 1.671875 C 4.6875 1.222656 4.15625 0.585938 3.65625 -0.234375 C 3.8125 -0.578125 3.992188 -0.988281 4.203125 -1.46875 C 4.421875 -1.957031 4.679688 -2.570312 4.984375 -3.3125 C 5.296875 -4.0625 5.660156 -4.972656 6.078125 -6.046875 C 6.503906 -7.117188 7.007812 -8.398438 7.59375 -9.890625 C 6.675781 -10.191406 6.078125 -10.722656 5.796875 -11.484375 C 5.910156 -11.585938 6.210938 -11.707031 6.703125 -11.84375 C 7.203125 -11.988281 7.8125 -12.144531 8.53125 -12.3125 C 8.851562 -13.15625 9.128906 -13.90625 9.359375 -14.5625 C 9.597656 -15.226562 9.816406 -15.859375 10.015625 -16.453125 C 10.210938 -17.046875 10.390625 -17.628906 10.546875 -18.203125 C 10.710938 -18.773438 10.859375 -19.382812 10.984375 -20.03125 L 10.828125 -20.03125 C 10.003906 -20.03125 9.335938 -20.222656 8.828125 -20.609375 C 8.328125 -21.003906 8.078125 -21.515625 8.078125 -22.140625 C 8.078125 -22.316406 8.101562 -22.519531 8.15625 -22.75 C 8.207031 -22.988281 8.273438 -23.195312 8.359375 -23.375 C 8.773438 -23.3125 9.179688 -23.269531 9.578125 -23.25 C 9.984375 -23.226562 10.507812 -23.21875 11.15625 -23.21875 C 12.519531 -23.21875 13.796875 -23.253906 14.984375 -23.328125 C 16.171875 -23.398438 17.242188 -23.476562 18.203125 -23.5625 C 19.160156 -23.65625 19.984375 -23.738281 20.671875 -23.8125 C 21.367188 -23.882812 21.90625 -23.921875 22.28125 -23.921875 C 22.769531 -23.921875 23.207031 -23.660156 23.59375 -23.140625 C 23.988281 -22.628906 24.296875 -21.894531 24.515625 -20.9375 C 23.816406 -21.007812 23.253906 -21.054688 22.828125 -21.078125 C 22.410156 -21.097656 22.039062 -21.109375 21.71875 -21.109375 C 20.613281 -21.109375 19.601562 -21.054688 18.6875 -20.953125 C 17.769531 -20.859375 16.898438 -20.75 16.078125 -20.625 C 15.953125 -20.425781 15.804688 -20.175781 15.640625 -19.875 C 15.484375 -19.570312 15.273438 -19.144531 15.015625 -18.59375 C 14.753906 -18.039062 14.421875 -17.320312 14.015625 -16.4375 C 13.617188 -15.550781 13.117188 -14.425781 12.515625 -13.0625 C 13.359375 -13.195312 14.160156 -13.304688 14.921875 -13.390625 C 15.691406 -13.472656 16.335938 -13.515625 16.859375 -13.515625 Z M 16.859375 -13.515625 "/></g></g></g><g fill="#fed136" fill-opacity="1"><g transform="translate(150.733095, 36.790555)"><g><path d="M 9.6875 -19.640625 C 8.820312 -19.640625 8.15625 -19.882812 7.6875 -20.375 C 7.226562 -20.863281 7 -21.453125 7 -22.140625 C 7 -22.316406 7.023438 -22.519531 7.078125 -22.75 C 7.140625 -22.988281 7.210938 -23.195312 7.296875 -23.375 C 7.578125 -23.25 7.992188 -23.15625 8.546875 -23.09375 C 9.097656 -23.039062 9.738281 -23.015625 10.46875 -23.015625 C 11.570312 -23.015625 12.820312 -23.0625 14.21875 -23.15625 C 15.613281 -23.257812 16.945312 -23.363281 18.21875 -23.46875 C 19.5 -23.582031 20.625 -23.6875 21.59375 -23.78125 C 22.5625 -23.875 23.1875 -23.921875 23.46875 -23.921875 C 24.269531 -23.921875 24.847656 -23.625 25.203125 -23.03125 C 25.566406 -22.4375 25.832031 -21.644531 26 -20.65625 C 25.4375 -20.695312 24.878906 -20.734375 24.328125 -20.765625 C 23.773438 -20.796875 23.304688 -20.8125 22.921875 -20.8125 C 22.234375 -20.8125 21.535156 -20.789062 20.828125 -20.75 C 20.128906 -20.707031 19.421875 -20.644531 18.703125 -20.5625 C 18.398438 -19.925781 18.066406 -19.179688 17.703125 -18.328125 C 17.335938 -17.472656 16.972656 -16.582031 16.609375 -15.65625 C 16.253906 -14.726562 15.914062 -13.804688 15.59375 -12.890625 C 15.269531 -11.972656 14.988281 -11.144531 14.75 -10.40625 C 14.269531 -8.976562 13.851562 -7.660156 13.5 -6.453125 C 13.144531 -5.242188 12.832031 -4.113281 12.5625 -3.0625 C 12.289062 -2.007812 12.054688 -1.007812 11.859375 -0.0625 C 11.671875 0.882812 11.5 1.8125 11.34375 2.71875 C 9.894531 2.507812 8.6875 1.601562 7.71875 0 C 7.882812 -0.664062 8.09375 -1.394531 8.34375 -2.1875 C 8.59375 -2.976562 8.882812 -3.875 9.21875 -4.875 C 9.550781 -5.882812 9.945312 -7.023438 10.40625 -8.296875 C 10.863281 -9.578125 11.382812 -11.023438 11.96875 -12.640625 C 12.175781 -13.242188 12.398438 -13.875 12.640625 -14.53125 C 12.878906 -15.195312 13.113281 -15.851562 13.34375 -16.5 C 13.570312 -17.144531 13.773438 -17.769531 13.953125 -18.375 C 14.140625 -18.988281 14.296875 -19.539062 14.421875 -20.03125 C 13.515625 -19.925781 12.65625 -19.832031 11.84375 -19.75 C 11.039062 -19.675781 10.320312 -19.640625 9.6875 -19.640625 Z M 9.6875 -19.640625 "/></g></g></g><g clip-path="url(#aae9c55ea7)"><g clip-path="url(#83659f39fe)"><g clip-path="url(#6d2a851035)"><path fill="#fed136" d="M 78.777344 13.21875 C 78.691406 13.851562 78.117188 14.292969 77.496094 14.207031 C 76.875 14.117188 76.441406 13.539062 76.53125 12.90625 C 76.617188 12.277344 77.195312 11.835938 77.816406 11.921875 C 78.433594 12.007812 78.867188 12.589844 78.777344 13.21875 " fill-opacity="1" fill-rule="nonzero"/></g></g></g><g clip-path="url(#414d736f21)"><g clip-path="url(#30c3a65334)"><g clip-path="url(#6d0cc16fe9)"><g clip-path="url(#2c35854dcf)"><g clip-path="url(#cd9386e00f)"><path fill="#fed136" d="M 78.015625 12.617188 C 78.015625 12.617188 78.441406 15.953125 76.054688 18.089844 C 76.054688 18.089844 78.3125 17.371094 79.117188 15.644531 C 79.117188 15.644531 80.976562 19.355469 78.703125 23.464844 C 78.703125 23.464844 83.238281 20.589844 81.75 15.4375 C 81.75 15.4375 85.40625 18.824219 84.777344 22.933594 C 84.777344 22.933594 88.71875 16.183594 80.488281 11.929688 C 80.488281 11.929688 85.617188 13.277344 88.015625 16.773438 C 88.015625 16.773438 86.898438 10.984375 81.335938 10.320312 C 81.335938 10.320312 82.996094 8.945312 84.925781 9.328125 C 84.925781 9.328125 81.988281 8.058594 79.652344 9.800781 C 79.652344 9.800781 78.933594 3.605469 70.644531 4.632812 C 70.644531 4.632812 76.292969 6.613281 77.160156 10.199219 C 77.160156 10.199219 69.820312 4.054688 66.652344 10.109375 C 66.652344 10.109375 70.25 8.65625 74.277344 10.601562 C 74.277344 10.601562 67.035156 10.21875 64.136719 15.5625 C 64.136719 15.5625 66.660156 13.910156 70.1875 13.765625 C 73.84375 13.613281 77.316406 12.347656 77.316406 12.347656 L 78.015625 12.617188 " fill-opacity="1" fill-rule="nonzero"/></g></g></g></g></g><g clip-path="url(#a3563bc135)"><g clip-path="url(#ed6423a64a)"><g clip-path="url(#204b7dbad1)"><g clip-path="url(#bf861258f0)"><g clip-path="url(#acce3d31e2)"><path fill="#fed136" d="M 77.910156 13.339844 C 77.769531 13.449219 77.628906 13.566406 77.492188 13.6875 C 77.351562 13.804688 77.214844 13.929688 77.078125 14.058594 C 76.574219 14.523438 76.070312 15.042969 75.578125 15.617188 C 74.953125 16.351562 74.34375 17.167969 73.789062 18.0625 C 73.226562 18.953125 72.71875 19.914062 72.269531 20.917969 C 72.050781 21.421875 71.84375 21.9375 71.652344 22.460938 C 71.558594 22.722656 71.464844 22.988281 71.382812 23.25 C 71.339844 23.378906 71.296875 23.507812 71.257812 23.648438 L 71.136719 24.050781 C 70.835938 25.128906 70.59375 26.222656 70.40625 27.304688 C 70.230469 28.394531 70.097656 29.472656 70.015625 30.519531 C 69.9375 31.570312 69.882812 32.585938 69.875 33.550781 C 69.863281 34.035156 69.871094 34.503906 69.871094 34.960938 C 69.871094 35.414062 69.882812 35.855469 69.890625 36.277344 C 69.90625 36.703125 69.921875 37.109375 69.933594 37.492188 C 69.953125 37.878906 69.96875 38.246094 69.988281 38.589844 C 70.027344 39.28125 70.0625 39.882812 70.09375 40.375 C 70.113281 40.609375 70.125 40.820312 70.140625 41.003906 L 67.613281 40.652344 C 67.613281 40.59375 67.617188 40.53125 67.617188 40.46875 C 67.617188 39.964844 67.621094 39.347656 67.632812 38.644531 C 67.640625 38.289062 67.648438 37.914062 67.660156 37.519531 C 67.671875 37.121094 67.6875 36.703125 67.703125 36.269531 C 67.726562 35.832031 67.746094 35.378906 67.777344 34.910156 C 67.8125 34.4375 67.835938 33.953125 67.886719 33.453125 C 67.96875 32.453125 68.097656 31.402344 68.253906 30.316406 C 68.417969 29.230469 68.636719 28.117188 68.898438 26.992188 C 69.179688 25.871094 69.511719 24.746094 69.90625 23.644531 L 70.058594 23.234375 C 70.109375 23.101562 70.167969 22.960938 70.222656 22.824219 C 70.332031 22.546875 70.449219 22.28125 70.566406 22.011719 C 70.804688 21.480469 71.058594 20.957031 71.328125 20.449219 C 71.867188 19.433594 72.46875 18.472656 73.113281 17.59375 C 73.753906 16.707031 74.441406 15.910156 75.140625 15.199219 C 75.671875 14.664062 76.210938 14.179688 76.742188 13.753906 C 76.910156 13.617188 77.074219 13.488281 77.242188 13.363281 C 77.363281 13.273438 77.480469 13.1875 77.601562 13.105469 C 77.695312 13.195312 77.800781 13.269531 77.910156 13.339844 " fill-opacity="1" fill-rule="nonzero"/></g></g></g></g></g><path fill="#fed136" d="M 119.277344 33.605469 C 119.621094 33.894531 120.078125 34.066406 120.632812 34.105469 C 120.511719 34.113281 120.394531 34.121094 120.277344 34.121094 C 119.523438 34.121094 118.914062 33.9375 118.476562 33.566406 C 117.523438 32.761719 117.550781 31.300781 117.648438 30.492188 C 117.867188 28.726562 118.824219 26.769531 120.289062 25.125 C 122.1875 22.988281 124.746094 21.609375 126.808594 21.609375 C 127.5625 21.609375 128.171875 21.792969 128.609375 22.164062 C 129.246094 22.699219 129.539062 23.683594 129.464844 24.875 C 129.410156 24.078125 129.144531 23.429688 128.679688 23.035156 C 128.265625 22.695312 127.707031 22.523438 127.007812 22.523438 C 125.097656 22.523438 122.726562 23.796875 120.96875 25.78125 C 119.613281 27.304688 118.714844 29.125 118.515625 30.757812 C 118.414062 31.507812 118.394531 32.863281 119.277344 33.605469 Z M 119.277344 33.605469 " fill-opacity="1" fill-rule="nonzero"/><g clip-path="url(#a3fc663ece)"><path fill="#fed136" d="M 110.609375 6.035156 C 112.09375 6.222656 123.796875 7.863281 127.15625 17.464844 C 127.125 17.464844 127.082031 17.464844 127.046875 17.464844 C 125.734375 17.464844 124.371094 17.765625 123.035156 18.328125 C 121.507812 15.238281 119.496094 12.382812 116.941406 11.03125 C 116.941406 11.03125 119.503906 13.40625 121.859375 18.898438 C 120.242188 19.769531 118.703125 21.019531 117.359375 22.578125 C 116.785156 23.242188 116.273438 23.9375 115.820312 24.65625 C 110.320312 20.6875 114.867188 9.507812 110.609375 6.035156 Z M 110.609375 6.035156 " fill-opacity="1" fill-rule="nonzero"/></g><g clip-path="url(#7dc1e6e363)"><path fill="#fed136" d="M 139.40625 12.75 C 137.316406 14.128906 136.769531 19.363281 134.511719 23.015625 C 133.566406 21.257812 132.449219 19.886719 131.601562 19.152344 C 132.949219 17.429688 133.902344 16.558594 133.902344 16.558594 C 132.984375 17.214844 132.101562 18 131.257812 18.871094 C 130.65625 18.382812 129.957031 18.011719 129.191406 17.78125 C 131.101562 15.433594 134.269531 13.414062 139.40625 12.75 Z M 139.40625 12.75 " fill-opacity="1" fill-rule="nonzero"/></g><g clip-path="url(#aeb140a5b8)"><path fill="#fed136" d="M 130.929688 19.542969 C 127.773438 16.804688 121.941406 18.371094 117.902344 23.050781 C 113.863281 27.730469 113.148438 33.738281 116.304688 36.480469 C 116.703125 36.824219 117.140625 37.105469 117.621094 37.320312 C 119.058594 38.683594 121.605469 40.359375 125.453125 40.359375 C 131.972656 40.359375 135.683594 35.109375 135.683594 29.984375 C 135.683594 25.273438 132.574219 20.820312 130.929688 19.542969 Z M 116.777344 36.253906 C 116.585938 36.085938 116.402344 35.90625 116.246094 35.707031 C 113.917969 32.925781 114.785156 27.664062 118.394531 23.476562 C 122.179688 19.089844 127.589844 17.523438 130.601562 19.898438 C 130.664062 19.949219 130.71875 19.996094 130.78125 20.042969 C 133.75 22.625 133.03125 28.347656 129.164062 32.816406 C 125.296875 37.300781 119.757812 38.835938 116.777344 36.253906 Z M 116.777344 36.253906 " fill-opacity="1" fill-rule="nonzero"/></g></svg>